# Exported from Wings 3D 1.4
mtllib plane.mtl
o cube3
#8 vertices, 6 faces
v -9.00000000 -0.50000000 9.00000000
v -9.00000000 0.10000000 9.00000000
v 9.00000000 0.10000000 9.00000000
v 9.00000000 -0.50000000 9.00000000
v -9.00000000 -0.50000000 -9.00000000
v -9.00000000 0.10000000 -9.00000000
v 9.00000000 0.10000000 -9.00000000
v 9.00000000 -0.50000000 -9.00000000
vt 1.5888889e-3 6.9333333e-3
vt 1.5888889e-3 1.2488889e-2
vt 1.5888889e-3 1.8044444e-2
vt 1.5888889e-3 1.8044444e-2
vt 1.5888889e-3 2.3600000e-2
vt 1.5888889e-3 2.9155556e-2
vt 1.5888889e-3 0.52915556
vt 1.5888889e-3 1.2488889e-2
vt 1.5888889e-3 2.3600000e-2
vt 1.5888889e-3 2.9155556e-2
vt 0.50158889 0.52915556
vt 0.50158889 2.9155556e-2
vt 0.50158889 6.9333333e-3
vt 0.50158889 6.9333333e-3
vt 0.50158889 1.2488889e-2
vt 0.50158889 1.2488889e-2
vt 0.50158889 1.8044444e-2
vt 0.50158889 1.8044444e-2
vt 0.50158889 2.3600000e-2
vt 0.50158889 2.3600000e-2
vt 0.50158889 2.9155556e-2
vt 0.50158889 0.50693333
vt 1.00158889 6.9333333e-3
vt 1.00158889 0.50693333
vn -0.57735027 -0.57735027 0.57735027
vn -0.57735027 0.57735027 0.57735027
vn 0.57735027 0.57735027 0.57735027
vn 0.57735027 -0.57735027 0.57735027
vn -0.57735027 -0.57735027 -0.57735027
vn -0.57735027 0.57735027 -0.57735027
vn 0.57735027 0.57735027 -0.57735027
vn 0.57735027 -0.57735027 -0.57735027
g cube3_cube3_auv
usemtl cube3_auv
s 1
f 1/5/1 4/20/4 3/21/3 2/6/2
f 1/23/1 5/24/5 8/22/8 4/13/4
f 2/17/2 6/3/6 5/8/5 1/16/1
f 3/12/3 7/11/7 6/7/6 2/10/2
f 4/1/4 8/14/8 7/15/7 3/2/3
f 6/19/6 7/9/7 8/4/8 5/18/5
