# Exported from Wings 3D 1.4
mtllib tessera.mtl
o cube2
#8 vertices, 6 faces
v -1.00000000 -2.00000000 0.16000000
v -1.00000000 2.00000000 0.16000000
v 1.00000000 2.00000000 0.16000000
v 1.00000000 -2.00000000 0.16000000
v -1.00000000 -2.00000000 -0.16000000
v -1.00000000 2.00000000 -0.16000000
v 1.00000000 2.00000000 -0.16000000
v 1.00000000 -2.00000000 -0.16000000
vt 0.0000000e+0 0.86206897
vt 0.0000000e+0 0.93103448
vt 2.7755576e-17 0.86206897
vt 7.6327833e-16 0.0000000e+0
vt 6.8965517e-2 0.86206897
vt 6.8965517e-2 2.2204460e-16
vt 6.8965517e-2 0.86206897
vt 6.8965517e-2 0.0000000e+0
vt 0.13793103 0.86206897
vt 0.13793103 0.0000000e+0
vt 0.13793103 0.86206897
vt 0.13793103 0.0000000e+0
vt 0.43103448 0.86206897
vt 0.43103448 0.86206897
vt 0.43103448 0.93103448
vt 0.43103448 0.93103448
vt 0.56896552 0.0000000e+0
vt 0.56896552 0.86206897
vt 0.56896552 0.86206897
vt 0.86206897 0.86206897
vt 0.86206897 0.93103448
vt 1.00000000 1.1102230e-16
vt 1.00000000 0.86206897
vn -0.57735027 -0.57735027 0.57735027
vn -0.57735027 0.57735027 0.57735027
vn 0.57735027 0.57735027 0.57735027
vn 0.57735027 -0.57735027 0.57735027
vn -0.57735027 -0.57735027 -0.57735027
vn -0.57735027 0.57735027 -0.57735027
vn 0.57735027 0.57735027 -0.57735027
vn 0.57735027 -0.57735027 -0.57735027
g cube2_cube2_auv
usemtl cube2_auv
s 1
f 1/12/1 4/17/4 3/18/3 2/11/2
f 1/14/1 5/16/5 8/2/8 4/3/4
f 2/5/2 6/1/6 5/4/5 1/6/1
f 3/20/3 7/21/7 6/15/6 2/13/2
f 4/8/4 8/10/8 7/9/7 3/7/3
f 6/23/6 7/19/7 8/17/8 5/22/5
