# Exported from Wings 3D 1.4
mtllib cilindro1.mtl
o cylinder3
#32 vertices, 18 faces
v 1.00000000 2.00599200 0.0000000e+0
v 0.92387953 2.00599200 0.38268343
v 0.70710678 2.00599200 0.70710678
v 0.38268343 2.00599200 0.92387953
v 6.1232340e-17 2.00599200 1.00000000
v -0.38268343 2.00599200 0.92387953
v -0.70710678 2.00599200 0.70710678
v -0.92387953 2.00599200 0.38268343
v -1.00000000 2.00599200 1.2246468e-16
v -0.92387953 2.00599200 -0.38268343
v -0.70710678 2.00599200 -0.70710678
v -0.38268343 2.00599200 -0.92387953
v -1.8369702e-16 2.00599200 -1.00000000
v 0.38268343 2.00599200 -0.92387953
v 0.70710678 2.00599200 -0.70710678
v 0.92387953 2.00599200 -0.38268343
v 1.00000000 -2.00599200 0.0000000e+0
v 0.92387953 -2.00599200 0.38268343
v 0.70710678 -2.00599200 0.70710678
v 0.38268343 -2.00599200 0.92387953
v 6.1232340e-17 -2.00599200 1.00000000
v -0.38268343 -2.00599200 0.92387953
v -0.70710678 -2.00599200 0.70710678
v -0.92387953 -2.00599200 0.38268343
v -1.00000000 -2.00599200 1.2246468e-16
v -0.92387953 -2.00599200 -0.38268343
v -0.70710678 -2.00599200 -0.70710678
v -0.38268343 -2.00599200 -0.92387953
v -1.8369702e-16 -2.00599200 -1.00000000
v 0.38268343 -2.00599200 -0.92387953
v 0.70710678 -2.00599200 -0.70710678
v 0.92387953 -2.00599200 -0.38268343
vt 0.0000000e+0 2.7755576e-16
vt 0.0000000e+0 0.62556091
vt 0.0000000e+0 0.87518697
vt 5.5511151e-17 0.50074788
vt 9.5008265e-3 0.67332479
vt 9.5008265e-3 0.57779703
vt 9.5008265e-3 0.82742309
vt 9.5008265e-3 0.92295085
vt 3.6556890e-2 0.78693083
vt 3.6556890e-2 0.53730477
vt 3.6556890e-2 0.71381705
vt 3.6556890e-2 0.96344311
vt 4.8699628e-2 0.50074788
vt 4.8699628e-2 2.7755576e-16
vt 7.7049152e-2 0.75987477
vt 7.7049152e-2 0.74087311
vt 7.7049152e-2 0.51024871
vt 7.7049152e-2 0.99049917
vt 9.7399257e-2 2.7755576e-16
vt 9.7399257e-2 0.50074788
vt 0.12481303 0.75037394
vt 0.12481303 0.50074788
vt 0.12481303 0.75037394
vt 0.12481303 1.00000000
vt 0.14609889 0.50074788
vt 0.14609889 3.3306691e-16
vt 0.17257691 0.51024871
vt 0.17257691 0.75987477
vt 0.17257691 0.74087311
vt 0.17257691 0.99049917
vt 0.19479851 2.7755576e-16
vt 0.19479851 0.50074788
vt 0.21306917 0.53730477
vt 0.21306917 0.78693083
vt 0.21306917 0.71381705
vt 0.21306917 0.96344311
vt 0.24012523 0.57779703
vt 0.24012523 0.67332479
vt 0.24012523 0.82742309
vt 0.24012523 0.92295085
vt 0.24349814 3.8857806e-16
vt 0.24349814 0.50074788
vt 0.24962606 0.87518697
vt 0.24962606 0.62556091
vt 0.29219777 2.7755576e-16
vt 0.29219777 0.50074788
vt 0.34089740 2.7755576e-16
vt 0.34089740 0.50074788
vt 0.38959703 2.7755576e-16
vt 0.38959703 0.50074788
vt 0.43829666 3.3306691e-16
vt 0.43829666 0.50074788
vt 0.48699628 0.50074788
vt 0.48699628 1.6653345e-16
vt 0.53569591 3.8857806e-16
vt 0.53569591 0.50074788
vt 0.58439554 0.50074788
vt 0.58439554 1.1102230e-16
vt 0.63309517 3.8857806e-16
vt 0.63309517 0.50074788
vt 0.68179480 0.50074788
vt 0.68179480 5.5511151e-17
vt 0.73049443 3.8857806e-16
vt 0.73049443 0.50074788
vt 0.77919405 0.50074788
vt 0.77919405 1.6653345e-16
vn 0.89090915 0.45418155 -1.7648498e-16
vn 0.82309273 0.45418155 0.34093617
vn 0.62996790 0.45418155 0.62996790
vn 0.34093617 0.45418155 0.82309273
vn 1.2606070e-17 0.45418155 0.89090915
vn -0.34093617 0.45418155 0.82309273
vn -0.62996790 0.45418155 0.62996790
vn -0.82309273 0.45418155 0.34093617
vn -0.89090915 0.45418155 -1.2606070e-16
vn -0.82309273 0.45418155 -0.34093617
vn -0.62996790 0.45418155 -0.62996790
vn -0.34093617 0.45418155 -0.82309273
vn -6.3030352e-17 0.45418155 -0.89090915
vn 0.34093617 0.45418155 -0.82309273
vn 0.62996790 0.45418155 -0.62996790
vn 0.82309273 0.45418155 -0.34093617
vn 0.89090915 -0.45418155 8.2353123e-17
vn 0.82309273 -0.45418155 0.34093617
vn 0.62996790 -0.45418155 0.62996790
vn 0.34093617 -0.45418155 0.82309273
vn 1.2606070e-17 -0.45418155 0.89090915
vn -0.34093617 -0.45418155 0.82309273
vn -0.62996790 -0.45418155 0.62996790
vn -0.82309273 -0.45418155 0.34093617
vn -0.89090915 -0.45418155 1.3277740e-16
vn -0.82309273 -0.45418155 -0.34093617
vn -0.62996790 -0.45418155 -0.62996790
vn -0.34093617 -0.45418155 -0.82309273
vn -6.3030352e-17 -0.45418155 -0.89090915
vn 0.34093617 -0.45418155 -0.82309273
vn 0.62996790 -0.45418155 -0.62996790
vn 0.82309273 -0.45418155 -0.34093617
g cylinder3_cylinder3_auv
usemtl cylinder3_auv
s 1
f 1/44/1 16/38/16 15/35/15 14/29/14 13/23/13 12/16/12 11/11/11 10/5/10 9/2/9 8/6/8 7/10/7 6/17/6 5/22/5 4/27/4 3/33/3 2/37/2
f 1/57/1 17/58/17 32/59/32 16/60/16
f 2/56/2 18/55/18 17/58/17 1/57/1
f 3/53/3 19/54/19 18/55/18 2/56/2
f 4/52/4 20/51/20 19/54/19 3/53/3
f 5/50/5 21/49/21 20/51/20 4/52/4
f 6/48/6 22/47/22 21/49/21 5/50/5
f 7/46/7 23/45/23 22/47/22 6/48/6
f 8/42/8 24/41/24 23/45/23 7/46/7
f 9/32/9 25/31/25 24/41/24 8/42/8
f 10/25/10 26/26/26 25/31/25 9/32/9
f 11/20/11 27/19/27 26/26/26 10/25/10
f 12/13/12 28/14/28 27/19/27 11/20/11
f 13/4/13 29/1/29 28/14/28 12/13/12
f 14/64/14 30/63/30 29/66/29 13/65/13
f 15/61/15 31/62/31 30/63/30 14/64/14
f 16/60/16 32/59/32 31/62/31 15/61/15
f 18/7/18 19/9/19 20/15/20 21/21/21 22/28/22 23/34/23 24/39/24 25/43/25 26/40/26 27/36/27 28/30/28 29/24/29 30/18/30 31/12/31 32/8/32 17/3/17
